<mxfile host="app.diagrams.net" modified="2024-05-02T14:36:07.647Z" agent="Mozilla/5.0 (Windows NT 10.0; Win64; x64) AppleWebKit/537.36 (KHTML, like Gecko) Chrome/124.0.0.0 Safari/537.36" version="24.3.1" etag="prJOzA10KRoqLI_3kmLc" type="github">
  <diagram name="Seite-1" id="mKm1IOrW9YKeFkGz6gPA">
    <mxGraphModel>
      <root>
        <mxCell id="0" />
        <mxCell id="1" parent="0" />
      </root>
    </mxGraphModel>
  </diagram>
</mxfile>
